<svg xmlns="http://www.w3.org/2000/svg" width="71" height="71" viewBox="0 0 71 71" fill="none">
  <path d="M27.6287 71H64.529C68.1043 71 70.9999 68.1025 70.9999 64.5273V41.1592C70.9999 55.7115 52.4679 67.8894 27.6287 71Z" fill="#70BE54"/>
  <path d="M64.5292 -3.21061e-06H48.0303C54.5527 4.19429 58.3987 9.35814 58.3987 14.9361C58.3987 16.9731 57.8886 18.9506 56.918 20.8503C65.6775 26.2494 71.0001 33.3645 71.0001 41.1592V6.47273C71.0001 2.89652 68.1045 -3.21061e-06 64.5292 -3.21061e-06Z" fill="#70BE54"/>
  <path d="M51.957 26.9443C42.7481 34.9733 24.5948 40.429 3.7076 40.429C2.4613 40.429 1.2251 40.4088 0 40.3674V61.5298C0.526195 61.5388 1.05643 61.5449 1.58767 61.5449C5.52656 61.5449 9.36242 61.346 13.0609 60.9622C37.3235 58.4797 55.502 48.2642 55.502 36.0519C55.502 32.8433 54.2516 29.7741 51.957 26.9443Z" fill="#00377C"/>
  <path d="M38.5698 -8.29573e-06H0V11.6972C2.77338 11.2689 5.63866 10.9569 8.57061 10.7731C10.7259 10.6297 12.9226 10.5579 15.1496 10.5579C26.5249 10.5579 37.1134 12.4233 45.9406 15.6258C46.4203 14.42 46.6657 13.1787 46.6657 11.9173C46.6657 7.54931 43.7075 3.4742 38.5698 -8.29573e-06Z" fill="#70BE54"/>
  <path d="M41.2574 18.7869C32.2363 15.8298 21.0084 14.0725 8.84127 14.0725C5.83358 14.0725 2.87539 14.1796 0 14.3886V32.7262C18.7814 31.7758 34.7228 26.7705 43.0854 19.7726C43.1823 19.6908 43.2793 19.609 43.3763 19.5272C42.6875 19.2717 41.9775 19.0273 41.2574 18.7869Z" fill="#00377C"/>
</svg>