<?xml version="1.0" encoding="UTF-8" standalone="no"?>
<!-- Created with Inkscape (http://www.inkscape.org/) -->

<svg
   version="1.1"
   id="svg2"
   width="447.45599"
   height="95.065331"
   viewBox="0 0 447.45598 95.065331"
   sodipodi:docname="BLOGNAMI.svg"
   inkscape:version="1.4.2 (ebf0e940, 2025-05-08)"
   xmlns:inkscape="http://www.inkscape.org/namespaces/inkscape"
   xmlns:sodipodi="http://sodipodi.sourceforge.net/DTD/sodipodi-0.dtd"
   xmlns="http://www.w3.org/2000/svg"
   xmlns:svg="http://www.w3.org/2000/svg">
  <defs
     id="defs6" />
  <sodipodi:namedview
     id="namedview4"
     pagecolor="#ffffff"
     bordercolor="#000000"
     borderopacity="0.25"
     inkscape:showpageshadow="2"
     inkscape:pageopacity="0.0"
     inkscape:pagecheckerboard="0"
     inkscape:deskcolor="#d1d1d1"
     inkscape:zoom="0.56706832"
     inkscape:cx="381.78821"
     inkscape:cy="66.129598"
     inkscape:window-width="1440"
     inkscape:window-height="750"
     inkscape:window-x="0"
     inkscape:window-y="25"
     inkscape:window-maximized="1"
     inkscape:current-layer="g8" />
  <g
     id="g8"
     inkscape:groupmode="layer"
     inkscape:label="ink_ext_XXXXXX"
     transform="matrix(1.3333333,0,0,-1.3333333,0,864)">
    <g
       id="g1"
       transform="translate(-173.9531,66.154556)">
      <path
         d="m 297.0701,539.00146 c 0,4.203 -3.493,6.604 -10.152,6.604 h -12.062 v -13.481 h 12.826 c 5.786,0 9.388,2.565 9.388,6.877 z m -2.129,17.302 c 0,3.821 -3.002,6.277 -8.46,6.277 h -11.625 v -13.154 h 11.298 c 5.186,0 8.787,2.347 8.787,6.877 z m 4.367,0.601 c 0,-5.022 -3.056,-7.587 -6.058,-8.897 4.53,-1.365 8.186,-3.985 8.186,-9.279 0,-6.604 -5.512,-10.479 -13.863,-10.479 h -16.975 v 38.206 h 16.266 c 7.531,0 12.444,-3.711 12.444,-9.551"
         style="fill:#00377c;fill-opacity:1;fill-rule:nonzero;stroke:none;stroke-width:0.1"
         id="path16" />
      <path
         d="m 308.5851,528.24946 v 39.843 h 4.202 v -39.843 h -4.202"
         style="fill:#00377c;fill-opacity:1;fill-rule:nonzero;stroke:none;stroke-width:0.1"
         id="path18" />
      <path
         d="m 334.3461,553.35646 c -6.114,0 -10.317,-4.858 -10.317,-10.971 0,-6.113 4.476,-11.025 10.426,-11.025 6.112,0 10.37,4.857 10.37,10.916 0,6.168 -4.53,11.08 -10.479,11.08 z m 0,-25.763 c -8.46,0 -14.628,6.66 -14.628,14.683 0,8.023 6.222,14.791 14.737,14.791 8.46,0 14.682,-6.658 14.682,-14.682 0,-8.023 -6.277,-14.792 -14.791,-14.792"
         style="fill:#00377c;fill-opacity:1;fill-rule:nonzero;stroke:none;stroke-width:0.1"
         id="path20" />
      <path
         d="m 368.0751,553.35646 c -5.35,0 -9.77,-3.657 -9.77,-9.552 0,-5.786 4.53,-9.661 9.77,-9.661 5.35,0 10.37,3.822 10.37,9.607 0,5.84 -5.02,9.606 -10.37,9.606 z m 0.05,-33.949 c -4.69,0 -9.06,1.309 -12.82,3.93 l 1.91,3.274 c 3.22,-2.347 6.82,-3.602 10.86,-3.602 6.22,0 10.26,3.439 10.26,10.042 v 3.331 c -2.46,-3.276 -5.89,-5.95 -11.08,-5.95 -6.77,0 -13.262,5.022 -13.262,13.263 0,8.296 6.552,13.372 13.262,13.372 5.3,0 8.73,-2.62 11.03,-5.676 v 5.075 h 4.2 v -23.305 c 0,-9.115 -5.68,-13.754 -14.36,-13.754"
         style="fill:#00377c;fill-opacity:1;fill-rule:nonzero;stroke:none;stroke-width:0.1"
         id="path22" />
      <path
         d="m 394.9851,528.24946 h -4.21 v 28.217 h 4.21 v -4.912 c 1.85,3.057 4.8,5.513 9.66,5.513 6.82,0 10.8,-4.585 10.8,-11.298 v -17.52 h -4.2 v 16.483 c 0,5.239 -2.84,8.515 -7.8,8.515 -4.86,0 -8.46,-3.548 -8.46,-8.842 v -16.156"
         style="fill:#70be54;fill-opacity:1;fill-rule:nonzero;stroke:none;stroke-width:0.1"
         id="path24" />
      <path
         d="m 425.4351,536.65446 c 0,-3.603 3.28,-5.676 7.1,-5.676 5.18,0 9.44,3.165 9.44,7.641 v 2.729 c -2.07,0.601 -4.86,1.201 -8.3,1.201 -5.29,0 -8.24,-2.292 -8.24,-5.895 z m -0.49,14.409 -1.25,3.439 c 3.11,1.42 6.16,2.347 10.26,2.347 7.69,0 12,-3.929 12,-11.353 v -17.247 h -4.04 v 4.257 c -1.96,-2.565 -5.23,-4.858 -10.2,-4.858 -5.24,0 -10.54,2.947 -10.54,8.842 0,6.004 4.92,9.17 12.07,9.17 3.6,0 6.16,-0.491 8.67,-1.2 v 0.982 c 0,5.075 -3.11,7.695 -8.4,7.695 -3.33,0 -5.95,-0.873 -8.57,-2.074"
         style="fill:#70be54;fill-opacity:1;fill-rule:nonzero;stroke:none;stroke-width:0.1"
         id="path26" />
      <path
         d="m 486.1251,557.06746 c 6.5,0 10.48,-4.366 10.48,-11.352 v -17.466 h -4.2 v 16.483 c 0,5.458 -2.73,8.515 -7.31,8.515 -4.26,0 -7.81,-3.166 -7.81,-8.734 v -16.264 h -4.15 v 16.592 c 0,5.294 -2.78,8.406 -7.26,8.406 -4.47,0 -7.86,-3.712 -7.86,-8.897 v -16.101 h -4.2 v 28.217 h 4.2 v -4.748 c 1.86,2.784 4.37,5.349 9.12,5.349 4.58,0 7.53,-2.456 9.06,-5.621 2.02,3.11 5.02,5.621 9.93,5.621"
         style="fill:#70be54;fill-opacity:1;fill-rule:nonzero;stroke:none;stroke-width:0.1"
         id="path28" />
      <path
         d="m 505.0151,528.24946 v 28.217 h 4.2 v -28.217 z m -0.28,34.385 v 4.64 h 4.81 v -4.64 h -4.81"
         style="fill:#70be54;fill-opacity:1;fill-rule:nonzero;stroke:none;stroke-width:0.1"
         id="path30" />
      <path
         d="m 201.3091,511.54646 37.536,-1 c 3.541,0 6.408,2.867 6.408,6.407 v 23.138 c 0,-14.409 -19.349,-25.465 -43.944,-28.545"
         style="fill:#70be54;fill-opacity:1;fill-rule:nonzero;stroke:none;stroke-width:0.1"
         id="path32" />
      <path
         d="m 237.8451,581.84546 h -16.335 c 6.458,-4.152 11.266,-10.266 11.266,-15.788 0,-2.018 -0.506,-3.976 -1.467,-5.857 8.674,-5.346 13.944,-12.391 13.944,-20.109 l -1,35.346 c 0,3.54 -2.867,6.408 -6.408,6.408"
         style="fill:#70be54;fill-opacity:1;fill-rule:nonzero;stroke:none;stroke-width:0.1"
         id="path34" />
      <path
         d="m 225.3981,555.16646 c -9.118,-7.95 -27.093,-13.352 -47.773,-13.352 -1.235,0 -2.458,0.021 -3.672,0.061 v -20.953 c 0.521,-0.01 1.047,-0.015 1.573,-0.015 3.9,0 7.697,0.197 11.36,0.576 24.023,2.458 43.022,11.573 43.022,23.666 0,3.176 -2.239,7.215 -4.51,10.017"
         style="fill:#00377c;fill-opacity:1;fill-rule:nonzero;stroke:none;stroke-width:0.1"
         id="path36" />
      <path
         d="m 212.1421,581.84546 h -38.189 v -11.582 c 2.746,0.425 5.584,0.733 8.486,0.915 2.135,0.142 4.31,0.213 6.515,0.213 11.263,0 21.747,-1.846 30.486,-5.017 0.476,1.194 0.719,2.423 0.719,3.672 0,4.324 -2.929,8.359 -8.017,11.799"
         style="fill:#70be54;fill-opacity:1;fill-rule:nonzero;stroke:none;stroke-width:0.1"
         id="path38" />
      <path
         d="m 214.8031,563.24346 c -8.932,2.929 -20.048,4.668 -32.095,4.668 -2.979,0 -5.907,-0.106 -8.755,-0.313 v -18.157 c 18.597,0.941 34.382,5.898 42.66,12.826 0.097,0.081 0.192,0.162 0.289,0.243 -0.683,0.253 -1.386,0.496 -2.099,0.733"
         style="fill:#00377c;fill-opacity:1;fill-rule:nonzero;stroke:none;stroke-width:0.1"
         id="path40" />
    </g>
  </g>
</svg>
