<?xml version="1.0" encoding="UTF-8" standalone="no"?>
<!-- Created with Inkscape (http://www.inkscape.org/) -->

<svg
   version="1.1"
   id="svg2"
   width="236.868"
   height="165.31332"
   viewBox="0 0 236.86799 165.31332"
   sodipodi:docname="logo.svg"
   inkscape:version="1.4.2 (ebf0e940, 2025-05-08)"
   xmlns:inkscape="http://www.inkscape.org/namespaces/inkscape"
   xmlns:sodipodi="http://sodipodi.sourceforge.net/DTD/sodipodi-0.dtd"
   xmlns="http://www.w3.org/2000/svg"
   xmlns:svg="http://www.w3.org/2000/svg">
  <defs
     id="defs6" />
  <sodipodi:namedview
     id="namedview4"
     pagecolor="#ffffff"
     bordercolor="#000000"
     borderopacity="0.25"
     inkscape:showpageshadow="2"
     inkscape:pageopacity="0.0"
     inkscape:pagecheckerboard="0"
     inkscape:deskcolor="#d1d1d1"
     inkscape:zoom="0.32421598"
     inkscape:cx="1207.5284"
     inkscape:cy="615.33055"
     inkscape:window-width="1440"
     inkscape:window-height="750"
     inkscape:window-x="0"
     inkscape:window-y="25"
     inkscape:window-maximized="1"
     inkscape:current-layer="g8" />
  <g
     id="g8"
     inkscape:groupmode="layer"
     inkscape:label="ink_ext_XXXXXX"
     transform="matrix(1.3333333,0,0,-1.3333333,0,864.00001)">
    <g
       id="g1"
       transform="translate(-235.823,261.96602)">
      <path
         d="m 255.501,276.615 c 0,3.124 -2.597,4.909 -7.547,4.909 h -8.966 v -10.021 h 9.534 c 4.301,0 6.979,1.907 6.979,5.112 z m -1.582,12.862 c 0,2.839 -2.232,4.666 -6.289,4.666 h -8.642 v -9.779 h 8.398 c 3.854,0 6.533,1.745 6.533,5.113 z m 3.245,0.446 c 0,-3.733 -2.271,-5.64 -4.503,-6.613 3.367,-1.015 6.086,-2.962 6.086,-6.898 0,-4.909 -4.099,-7.79 -10.306,-7.79 h -12.618 v 28.401 h 12.091 c 5.599,0 9.25,-2.758 9.25,-7.1"
         style="fill:#00377c;fill-opacity:1;fill-rule:nonzero;stroke:none;stroke-width:0.1"
         id="path42" />
      <path
         d="m 264.065,268.622 v 29.618 h 3.124 v -29.618 h -3.124"
         style="fill:#00377c;fill-opacity:1;fill-rule:nonzero;stroke:none;stroke-width:0.1"
         id="path44" />
      <path
         d="m 283.217,287.286 c -4.544,0 -7.668,-3.611 -7.668,-8.155 0,-4.545 3.327,-8.196 7.749,-8.196 4.544,0 7.709,3.611 7.709,8.115 0,4.584 -3.367,8.236 -7.79,8.236 z m 0,-19.151 c -6.289,0 -10.873,4.95 -10.873,10.915 0,5.964 4.625,10.995 10.954,10.995 6.289,0 10.914,-4.95 10.914,-10.914 0,-5.965 -4.666,-10.996 -10.995,-10.996"
         style="fill:#00377c;fill-opacity:1;fill-rule:nonzero;stroke:none;stroke-width:0.1"
         id="path46" />
      <path
         d="m 308.295,287.286 c -3.977,0 -7.263,-2.719 -7.263,-7.1 0,-4.301 3.367,-7.182 7.263,-7.182 3.976,0 7.709,2.84 7.709,7.141 0,4.341 -3.733,7.141 -7.709,7.141 z m 0.04,-25.237 c -3.489,0 -6.735,0.974 -9.534,2.922 l 1.42,2.434 c 2.393,-1.745 5.071,-2.677 8.074,-2.677 4.625,0 7.628,2.555 7.628,7.464 v 2.475 c -1.826,-2.434 -4.383,-4.422 -8.236,-4.422 -5.032,0 -9.86,3.733 -9.86,9.859 0,6.167 4.868,9.941 9.86,9.941 3.935,0 6.491,-1.948 8.195,-4.22 v 3.774 h 3.124 v -17.326 c 0,-6.775 -4.22,-10.224 -10.671,-10.224"
         style="fill:#00377c;fill-opacity:1;fill-rule:nonzero;stroke:none;stroke-width:0.1"
         id="path48" />
      <path
         d="m 328.3,268.622 h -3.124 v 20.977 h 3.124 v -3.652 c 1.38,2.272 3.57,4.098 7.181,4.098 5.072,0 8.034,-3.408 8.034,-8.399 v -13.024 h -3.124 v 12.253 c 0,3.896 -2.11,6.329 -5.802,6.329 -3.611,0 -6.289,-2.637 -6.289,-6.572 v -12.01"
         style="fill:#70be54;fill-opacity:1;fill-rule:nonzero;stroke:none;stroke-width:0.1"
         id="path50" />
      <path
         d="m 350.942,274.87 c 0,-2.678 2.435,-4.22 5.275,-4.22 3.854,0 7.019,2.354 7.019,5.681 v 2.028 c -1.542,0.447 -3.611,0.893 -6.167,0.893 -3.935,0 -6.127,-1.704 -6.127,-4.382 z m -0.365,10.712 -0.932,2.556 c 2.312,1.054 4.584,1.745 7.627,1.745 5.721,0 8.926,-2.922 8.926,-8.44 v -12.821 h -3.002 v 3.165 c -1.461,-1.907 -3.895,-3.611 -7.588,-3.611 -3.894,0 -7.83,2.191 -7.83,6.573 0,4.463 3.652,6.815 8.967,6.815 2.678,0 4.584,-0.364 6.451,-0.892 v 0.73 c 0,3.774 -2.313,5.721 -6.249,5.721 -2.474,0 -4.422,-0.648 -6.37,-1.541"
         style="fill:#70be54;fill-opacity:1;fill-rule:nonzero;stroke:none;stroke-width:0.1"
         id="path52" />
      <path
         d="m 396.063,290.045 c 4.829,0 7.791,-3.246 7.791,-8.44 v -12.983 h -3.125 v 12.253 c 0,4.058 -2.029,6.329 -5.437,6.329 -3.164,0 -5.802,-2.352 -5.802,-6.491 v -12.091 h -3.083 v 12.334 c 0,3.936 -2.069,6.248 -5.396,6.248 -3.327,0 -5.843,-2.759 -5.843,-6.613 v -11.969 h -3.124 v 20.977 h 3.124 v -3.531 c 1.38,2.07 3.246,3.977 6.775,3.977 3.409,0 5.6,-1.826 6.736,-4.18 1.501,2.314 3.733,4.18 7.384,4.18"
         style="fill:#70be54;fill-opacity:1;fill-rule:nonzero;stroke:none;stroke-width:0.1"
         id="path54" />
      <path
         d="m 410.106,268.622 v 20.977 h 3.124 v -20.977 z m -0.203,25.562 v 3.448 h 3.571 v -3.448 h -3.571"
         style="fill:#70be54;fill-opacity:1;fill-rule:nonzero;stroke:none;stroke-width:0.1"
         id="path56" />
      <path
         d="m 317.018,315.733 h 36.536 c 3.54,0 6.407,2.869 6.407,6.409 v 23.138 c 0,-14.409 -18.349,-26.467 -42.943,-29.547"
         style="fill:#70be54;fill-opacity:1;fill-rule:nonzero;stroke:none;stroke-width:0.1"
         id="path58" />
      <path
         d="m 353.554,386.034 h -16.336 c 6.458,-4.153 10.266,-9.266 10.266,-14.789 0,-2.017 -0.505,-3.975 -1.466,-5.856 8.673,-5.346 13.943,-12.391 13.943,-20.109 v 34.345 c 0,3.541 -2.867,6.409 -6.407,6.409"
         style="fill:#70be54;fill-opacity:1;fill-rule:nonzero;stroke:none;stroke-width:0.1"
         id="path60" />
      <path
         d="m 341.106,359.355 c -9.118,-7.95 -27.092,-13.352 -47.773,-13.352 -1.234,0 -2.458,0.02 -3.671,0.061 V 325.11 c 0.521,-0.009 1.046,-0.015 1.572,-0.015 3.9,0 7.698,0.197 11.36,0.577 24.023,2.458 42.022,12.573 42.022,24.665 0,3.177 -1.238,6.216 -3.51,9.018"
         style="fill:#00377c;fill-opacity:1;fill-rule:nonzero;stroke:none;stroke-width:0.1"
         id="path62" />
      <path
         d="m 327.851,386.034 h -38.189 v -11.582 c 2.746,0.424 5.583,0.733 8.486,0.915 2.134,0.142 4.309,0.213 6.514,0.213 11.263,0 21.747,-1.847 30.487,-5.018 0.475,1.194 0.718,2.423 0.718,3.672 0,4.325 -2.929,8.36 -8.016,11.8"
         style="fill:#70be54;fill-opacity:1;fill-rule:nonzero;stroke:none;stroke-width:0.1"
         id="path64" />
      <path
         d="m 330.512,367.432 c -8.932,2.928 -20.049,4.668 -32.096,4.668 -2.978,0 -5.907,-0.106 -8.754,-0.313 V 353.63 c 18.596,0.941 34.38,5.897 42.66,12.826 0.096,0.081 0.192,0.162 0.288,0.243 -0.682,0.253 -1.385,0.495 -2.098,0.733"
         style="fill:#00377c;fill-opacity:1;fill-rule:nonzero;stroke:none;stroke-width:0.1"
         id="path66" />
    </g>
  </g>
</svg>
