<?xml version="1.0" encoding="UTF-8"?>
<!DOCTYPE svg PUBLIC "-//W3C//DTD SVG 1.1//EN" "http://www.w3.org/Graphics/SVG/1.1/DTD/svg11.dtd">
<!-- Creator: CorelDRAW X7 -->
<svg xmlns="http://www.w3.org/2000/svg" xml:space="preserve" width="11in" height="8.5in" version="1.1" style="shape-rendering:geometricPrecision; text-rendering:geometricPrecision; image-rendering:optimizeQuality; fill-rule:evenodd; clip-rule:evenodd"
viewBox="0 0 11000 8500"
 xmlns:xlink="http://www.w3.org/1999/xlink">
 <defs>
  <style type="text/css">
   <![CDATA[
    .fil0 {fill:none}
    .fil1 {fill:#35D0AC;fill-rule:nonzero}
    .fil2 {fill:#383838;fill-rule:nonzero}
   ]]>
  </style>
 </defs>
 <g id="Layer_x0020_1">
  <metadata id="CorelCorpID_0Corel-Layer"/>
  <rect class="fil0" width="11000" height="8500"/>
  <path class="fil1" d="M5544 2389c334,192 667,385 1001,578l0 1205 -511 295 0 0c-178,103 -356,206 -534,309 -159,-92 -317,-184 -476,-275l0 -1206c158,-92 317,-184 476,-275l250 144 -1 0 227 131 0 549c-158,92 -317,184 -476,275 -100,-57 -200,-115 -300,-173l0 125 300 173 584 -337 0 -675 -291 -168 -1 0 -292 -169 -584 337 0 1207 -177 -102 0 -1206 370 -214 0 0c130,-75 261,-150 391,-225l391 225 0 0 370 214 0 878c-254,146 -508,292 -761,439l-300 -173 0 125 300 173 868 -502 0 -1003 -433 -250 -1 -1 -434 -250 -868 501 0 1206 -177 -102 0 -1205c348,-202 697,-403 1045,-604l44 26zm-344 1354l300 173 150 -87 1 0 149 -86 0 -347 -300 -173 -300 173 0 347z"/>
  <path class="fil2" d="M2390 5959l151 0 0 -229 167 0c154,0 267,-99 267,-240 0,-140 -113,-239 -267,-239l-318 0 0 708zm151 -369l0 -200 151 0c75,0 127,40 127,100 0,61 -52,100 -127,100l-151 0z"/>
  <path id="1" class="fil2" d="M3170 5353c44,0 80,-37 80,-82 0,-42 -36,-80 -80,-80 -46,0 -83,38 -83,80 0,45 37,82 83,82zm-76 606l150 0 0 -532 -150 0 0 532z"/>
  <path id="2" class="fil2" d="M3712 5414c-69,0 -129,31 -161,80l0 -67 -150 0 0 532 150 0 0 -318 1 3c0,-58 49,-103 111,-103 60,0 101,45 101,111l0 307 146 0 0 -339c0,-120 -83,-206 -198,-206z"/>
  <path id="3" class="fil2" d="M4265 5972c131,0 217,-67 217,-172 0,-117 -102,-148 -194,-171 -72,-20 -94,-28 -94,-57 0,-19 26,-32 63,-32 45,0 101,17 149,47l61 -107c-59,-39 -134,-66 -210,-66 -126,0 -209,72 -208,173 1,105 85,135 195,162 54,15 93,25 93,58 0,24 -29,40 -69,40 -71,0 -131,-26 -178,-60l-65 104c64,52 155,81 240,81z"/>
  <path id="4" class="fil2" d="M4892 5827c-11,11 -31,18 -52,18 -28,0 -50,-25 -50,-60l0 -237 115 0 0 -121 -115 0 0 -147 -145 0 0 147 -73 0 0 121 73 0 0 261c0,96 66,163 160,163 43,0 92,-19 123,-47l-36 -98z"/>
  <path id="5" class="fil2" d="M5201 5525l0 -98 -151 0 0 532 151 0 0 -254c0,-100 71,-164 182,-164l0 -127c-81,0 -147,42 -182,111z"/>
  <path id="6" class="fil2" d="M5574 5353c44,0 80,-37 80,-82 0,-42 -36,-80 -80,-80 -47,0 -83,38 -83,80 0,45 36,82 83,82zm-77 606l151 0 0 -532 -151 0 0 532z"/>
  <path id="7" class="fil2" d="M6136 5414c-74,0 -136,32 -178,87l0 -74 -151 0 0 710 151 0 0 -253c42,56 104,88 178,88 142,0 245,-116 245,-280 0,-162 -103,-278 -245,-278zm-43 431c-73,0 -127,-54 -135,-132l0 -41c8,-77 62,-131 135,-131 83,0 142,63 142,151 0,90 -59,153 -142,153z"/>
  <path id="8" class="fil2" d="M6768 5839c-63,0 -109,-39 -127,-97l384 0c0,-201 -97,-328 -264,-328 -156,0 -275,117 -275,277 0,164 124,281 283,281 78,0 170,-33 217,-83l-96 -98c-28,28 -80,48 -122,48zm-1 -292c61,0 100,34 114,87l-238 0c20,-54 67,-87 124,-87z"/>
  <path id="9" class="fil2" d="M7656 5972c143,0 244,-101 244,-243l0 -478 -152 0 0 465c0,69 -46,118 -108,118 -47,0 -97,-32 -120,-79l-101 99c47,69 146,118 237,118z"/>
  <path id="10" class="fil2" d="M8335 5972c173,0 275,-90 275,-225 0,-131 -101,-176 -253,-210 -110,-25 -152,-41 -152,-93 0,-42 39,-76 104,-76 68,0 139,28 202,78l79 -109c-72,-62 -161,-98 -277,-98 -154,0 -261,90 -261,221 0,137 106,179 255,213 108,25 150,40 150,91 0,44 -40,79 -116,79 -90,0 -166,-35 -233,-93l-87 104c82,76 191,118 314,118z"/>
 </g>
</svg>
